<?xml version="1.0" encoding="UTF-8"?>
<svg xmlns="http://www.w3.org/2000/svg" xmlns:xlink="http://www.w3.org/1999/xlink" width="100pt" height="100pt" viewBox="0 0 100 100" version="1.1">
<g id="surface1">
<path style=" stroke:none;fill-rule:nonzero;fill:#E4D9D9;fill-opacity:1;" d="M 87.984375 3.96875 C 86.117188 3.96875 84.195313 4.65625 82.773438 6.078125 L 80.109375 8.804688 L 90.402344 19.097656 C 90.394531 19.105469 93.128906 16.429688 93.128906 16.429688 C 95.972656 13.585938 95.972656 8.921875 93.128906 6.078125 C 91.703125 4.648438 89.851563 3.96875 87.984375 3.96875 Z M 76.886719 11.78125 L 31.808594 56.859375 L 31.683594 57.476563 L 29.824219 67.089844 L 29.203125 70.003906 L 32.117188 69.382813 L 41.730469 67.523438 L 42.347656 67.398438 L 87.425781 22.320313 L 84.574219 19.53125 L 40.425781 63.617188 L 35.589844 58.78125 L 79.675781 14.632813 Z M 5.953125 19.839844 C 4.851563 19.839844 3.96875 20.734375 3.96875 21.824219 L 3.96875 93.253906 C 3.96875 94.347656 4.851563 95.238281 5.953125 95.238281 L 77.382813 95.238281 C 78.480469 95.238281 79.363281 94.347656 79.363281 93.253906 L 79.363281 35.714844 L 75.398438 39.683594 L 75.398438 91.269531 L 7.9375 91.269531 L 7.9375 23.808594 L 59.523438 23.808594 L 63.492188 19.839844 Z "/>
</g>
</svg>
