<?xml version="1.0" encoding="UTF-8"?>
    <svg xmlns="http://www.w3.org/2000/svg" xmlns:xlink="http://www.w3.org/1999/xlink" width="100pt" height="100pt" viewBox="0 0 100 100" version="1.1">
    <g id="surface1">
        <path style=" stroke:none;fill-rule:nonzero;fill:#E4D9D9;fill-opacity:1;" d="M 5.953125 7.9375 C 2.6875 7.9375 0 10.625 0 13.890625 L 0 87.117188 C -0.125 87.574219 -0.078125 88.054688 0.125 88.480469 C 0.683594 91.183594 3.101563 93.253906 5.953125 93.253906 L 83.332031 93.253906 C 86.292969 93.253906 88.726563 91.023438 89.160156 88.167969 C 89.175781 88.046875 89.214844 87.921875 89.222656 87.796875 C 89.222656 87.757813 89.222656 87.710938 89.222656 87.671875 L 89.285156 87.363281 C 89.285156 87.339844 89.285156 87.324219 89.285156 87.300781 L 99.144531 34.101563 L 99.207031 33.917969 L 99.207031 33.730469 C 99.207031 30.46875 96.515625 27.777344 93.253906 27.777344 L 93.253906 21.824219 C 93.253906 18.5625 90.566406 15.871094 87.300781 15.871094 L 35.777344 15.871094 C 35.785156 15.878906 35.761719 15.871094 35.714844 15.871094 C 35.652344 15.828125 35.472656 15.679688 35.15625 15.316406 C 34.667969 14.757813 34.101563 13.828125 33.480469 12.835938 C 32.863281 11.84375 32.195313 10.789063 31.375 9.859375 C 30.550781 8.929688 29.40625 7.9375 27.777344 7.9375 Z M 5.953125 11.90625 L 27.777344 11.90625 C 27.652344 11.90625 27.910156 11.90625 28.398438 12.460938 C 28.886719 13.019531 29.453125 13.949219 30.070313 14.941406 C 30.691406 15.933594 31.375 16.988281 32.179688 17.917969 C 32.984375 18.847656 34.085938 19.839844 35.714844 19.839844 L 87.300781 19.839844 C 88.417969 19.839844 89.285156 20.710938 89.285156 21.824219 L 89.285156 27.777344 L 15.871094 27.777344 C 12.75 27.777344 10.261719 30.289063 10.042969 33.359375 L 9.984375 33.359375 L 9.921875 33.730469 L 3.96875 65.847656 L 3.96875 13.890625 C 3.96875 12.773438 4.835938 11.90625 5.953125 11.90625 Z M 15.871094 31.746094 L 93.253906 31.746094 C 94.371094 31.746094 95.238281 32.613281 95.238281 33.730469 L 85.503906 86.371094 L 85.441406 86.496094 C 85.417969 86.574219 85.394531 86.660156 85.378906 86.742188 C 85.355469 86.820313 85.332031 86.90625 85.316406 86.992188 C 85.316406 87.03125 85.316406 87.078125 85.316406 87.117188 C 85.316406 87.140625 85.316406 87.15625 85.316406 87.175781 C 85.285156 87.277344 85.269531 87.378906 85.253906 87.488281 C 85.246094 87.550781 85.261719 87.613281 85.253906 87.671875 C 85.246094 87.757813 85.246094 87.835938 85.253906 87.921875 C 85.007813 88.726563 84.238281 89.285156 83.332031 89.285156 L 5.953125 89.285156 C 4.835938 89.285156 3.96875 88.417969 3.96875 87.300781 L 13.828125 34.101563 L 13.890625 33.917969 L 13.890625 33.730469 C 13.890625 32.613281 14.757813 31.746094 15.871094 31.746094 Z "/>
    </g>
</svg>
